<?xml version="1.0" encoding="UTF-8"?>
<svg width="20px" height="20px" viewBox="0 0 20 20" version="1.1" xmlns="http://www.w3.org/2000/svg" xmlns:xlink="http://www.w3.org/1999/xlink">
    <!-- Generator: Sketch 50 (54983) - http://www.bohemiancoding.com/sketch -->
    <title>github</title>
    <desc>Created with Sketch.</desc>
    <defs></defs>
    <g id="Page-1" stroke="none" stroke-width="1" fill="none" fill-rule="evenodd">
        <g id="Desktop-Copy-14" transform="translate(-314.000000, -419.000000)">
            <g id="Group" transform="translate(314.000000, 419.000000)">
                <rect id="Rectangle-13" fill-opacity="0" fill="#7D7D7D" x="0" y="0" width="20" height="20"></rect>
                <path d="M5.77734375,5.484375 C6.98047477,4.24478547 8.42967902,3.625 10.125,3.625 C11.820321,3.625 13.264968,4.24022822 14.4589844,5.47070312 C15.6530008,6.70117803 16.25,8.18228301 16.25,9.9140625 C16.25,11.2812568 15.8580768,12.5117133 15.0742188,13.6054688 C14.2903607,14.6992242 13.2877665,15.4557271 12.0664062,15.875 L11.9570312,15.875 C11.7382802,15.875 11.6289062,15.7656261 11.6289062,15.546875 C11.6289062,15.5286457 11.6334635,15.3235697 11.6425781,14.9316406 C11.6516928,14.5397116 11.65625,14.1796891 11.65625,13.8515625 C11.65625,13.322914 11.5104181,12.9309909 11.21875,12.6757812 C12.0572959,12.5664057 12.7363255,12.2975282 13.2558594,11.8691406 C13.7753932,11.4407531 14.0351562,10.679693 14.0351562,9.5859375 C14.0351562,8.92968422 13.8255229,8.3645857 13.40625,7.890625 C13.5885426,7.36197652 13.5703136,6.8059925 13.3515625,6.22265625 L13.2148438,6.22265625 C12.7955708,6.22265625 12.2760448,6.44140406 11.65625,6.87890625 C11.1276015,6.73307219 10.61719,6.66015625 10.125,6.66015625 C9.63281004,6.66015625 9.12239848,6.73307219 8.59375,6.87890625 C7.97395523,6.44140406 7.45442918,6.22265625 7.03515625,6.22265625 L6.8984375,6.22265625 C6.67968641,6.8059925 6.66145742,7.36197652 6.84375,7.890625 C6.42447707,8.3645857 6.21484375,8.92968422 6.21484375,9.5859375 C6.21484375,10.679693 6.47004953,11.4407531 6.98046875,11.8691406 C7.49088797,12.2975282 8.16536039,12.5664057 9.00390625,12.6757812 C8.80338441,12.8763031 8.67578152,13.1588523 8.62109375,13.5234375 C8.40234266,13.632813 8.16536586,13.6875 7.91015625,13.6875 C7.4544248,13.6875 7.09895961,13.4596377 6.84375,13.0039062 C6.60676965,12.6028626 6.28776242,12.3841148 5.88671875,12.3476562 C5.50390434,12.3476562 5.49478984,12.4752591 5.859375,12.7304688 C6.13281387,12.8763028 6.36067617,13.1861955 6.54296875,13.6601562 C6.56119801,13.7330733 6.59765598,13.819661 6.65234375,13.9199219 C6.70703152,14.0201828 6.85742064,14.1523429 7.10351562,14.3164062 C7.34961061,14.4804696 7.6458316,14.5625 7.9921875,14.5625 C8.24739711,14.5625 8.44791594,14.544271 8.59375,14.5078125 L8.59375,15.5742188 C8.59375,15.7747406 8.49349059,15.875 8.29296875,15.875 L8.18359375,15.875 C6.94400422,15.4557271 5.93685283,14.7037815 5.16210938,13.6191406 C4.38736592,12.5344998 4,11.2994861 4,9.9140625 C4,8.18228301 4.59244199,6.70573527 5.77734375,5.484375 Z" id="ion-social-github---Ionicons" fill="#FFFFFF"></path>
            </g>
        </g>
    </g>
</svg>