<?xml version="1.0" encoding="UTF-8"?>
<svg width="20px" height="20px" viewBox="0 0 20 20" version="1.1" xmlns="http://www.w3.org/2000/svg" xmlns:xlink="http://www.w3.org/1999/xlink">
    <!-- Generator: Sketch 50 (54983) - http://www.bohemiancoding.com/sketch -->
    <title>linkedin</title>
    <desc>Created with Sketch.</desc>
    <defs></defs>
    <g id="Page-1" stroke="none" stroke-width="1" fill="none" fill-rule="evenodd">
        <g id="Desktop-Copy-14" transform="translate(-394.000000, -419.000000)">
            <g id="Group-5" transform="translate(394.000000, 419.000000)">
                <rect id="Rectangle-13-Copy-4" fill-opacity="0" fill="#7D7D7D" x="0" y="0" width="20" height="20"></rect>
                <path d="M14.6523438,4.5 C14.8893241,4.5 15.0898429,4.57747318 15.2539062,4.73242188 C15.4179696,4.88737057 15.5,5.08333215 15.5,5.3203125 L15.5,14.0976562 C15.5,14.3346366 15.4179696,14.5442699 15.2539062,14.7265625 C15.0898429,14.9088551 14.8893241,15 14.6523438,15 L5.90234375,15 C5.6653634,15 5.45573008,14.9088551 5.2734375,14.7265625 C5.09114492,14.5442699 5,14.3346366 5,14.0976562 L5,5.3203125 C5,5.08333215 5.08658768,4.88737057 5.25976562,4.73242188 C5.43294357,4.57747318 5.64713414,4.5 5.90234375,4.5 L14.6523438,4.5 Z M8.25390625,13.25 L8.25390625,8.57421875 L6.75,8.57421875 L6.75,13.25 L8.25390625,13.25 Z M6.96875,7.64453125 C7.11458406,7.79036531 7.3059884,7.86328125 7.54296875,7.86328125 C7.7799491,7.86328125 7.97591068,7.78580807 8.13085938,7.63085938 C8.28580807,7.47591068 8.36328125,7.28906359 8.36328125,7.0703125 C8.36328125,6.83333215 8.29036531,6.63737057 8.14453125,6.48242188 C7.99869719,6.32747318 7.80729285,6.25 7.5703125,6.25 C7.33333215,6.25 7.13737057,6.32747318 6.98242188,6.48242188 C6.82747318,6.63737057 6.75,6.83333215 6.75,7.0703125 C6.75,7.28906359 6.82291594,7.48046793 6.96875,7.64453125 Z M13.75,13.25 L13.75,10.515625 C13.75,9.84114246 13.5904964,9.3307309 13.2714844,8.984375 C12.9524724,8.6380191 12.537763,8.46484375 12.0273438,8.46484375 C11.480466,8.46484375 11.0247414,8.72004953 10.6601562,9.23046875 L10.6601562,8.57421875 L9.15625,8.57421875 L9.15625,13.25 L10.6601562,13.25 L10.6601562,10.5976562 C10.6601562,10.4153637 10.6783852,10.2877608 10.7148438,10.2148438 C10.8606778,9.85025859 11.1158836,9.66796875 11.4804688,9.66796875 C11.990888,9.66796875 12.2460938,10.005205 12.2460938,10.6796875 L12.2460938,13.25 L13.75,13.25 Z" id="ion-social-linkedin---Ionicons" fill="#FFFFFF"></path>
            </g>
        </g>
    </g>
</svg>