<?xml version="1.0" encoding="UTF-8"?>
<svg width="20px" height="20px" viewBox="0 0 20 20" version="1.1" xmlns="http://www.w3.org/2000/svg" xmlns:xlink="http://www.w3.org/1999/xlink">
    <!-- Generator: Sketch 50 (54983) - http://www.bohemiancoding.com/sketch -->
    <title>medium</title>
    <desc>Created with Sketch.</desc>
    <defs></defs>
    <g id="Page-1" stroke="none" stroke-width="1" fill="none" fill-rule="evenodd">
        <g id="Desktop-Copy-14" transform="translate(-374.000000, -419.000000)">
            <g id="Group-4" transform="translate(374.000000, 419.000000)">
                <rect id="Rectangle-13-Copy-3" fill-opacity="0" fill="#7D7D7D" x="0" y="0" width="20" height="20"></rect>
                <path d="M8.6646249,7.15568381 L8.6646249,14.3560272 C8.6646249,14.5463176 8.5725489,14.7243312 8.3638433,14.7243312 C8.29018249,14.7243312 8.22266009,14.705916 8.16127609,14.675224 L5.30692001,13.2449768 C5.1350448,13.1590392 5,12.9380568 5,12.7539048 L5,5.75612857 C5,5.60266856 5.0736608,5.46148536 5.23939761,5.46148536 C5.33761201,5.46148536 5.42354961,5.51059256 5.50948721,5.55356136 L8.6462097,7.1249918 C8.6523481,7.1311302 8.6646249,7.14954541 8.6646249,7.15568381 Z M9.05748252,7.77566222 L12.3353882,13.0915168 L9.05748252,11.4587023 L9.05748252,7.77566222 Z M16.0000131,7.88615343 L16.0000131,14.3560272 C16.0000131,14.5585944 15.8833835,14.6997776 15.6808163,14.6997776 C15.5764635,14.6997776 15.4782491,14.6690856 15.3923115,14.6199784 L12.685277,13.2695304 L16.0000131,7.88615343 Z M15.9815979,7.14954541 C15.9815979,7.17409901 12.808045,12.3242168 12.562509,12.7170744 L10.1685329,8.82532865 L12.1573746,5.59039176 C12.224897,5.47990056 12.347665,5.41851656 12.4765714,5.41851656 C12.531817,5.41851656 12.5870626,5.43079336 12.6361698,5.45534696 L15.9570443,7.112715 C15.9693211,7.1188534 15.9815979,7.1311302 15.9815979,7.14954541 Z" id="medium---FontAwesome" fill="#FFFFFF"></path>
            </g>
        </g>
    </g>
</svg>