<?xml version="1.0" encoding="UTF-8"?>
<svg width="20px" height="20px" viewBox="0 0 20 20" version="1.1" xmlns="http://www.w3.org/2000/svg" xmlns:xlink="http://www.w3.org/1999/xlink">
    <!-- Generator: Sketch 50 (54983) - http://www.bohemiancoding.com/sketch -->
    <title>twitter</title>
    <desc>Created with Sketch.</desc>
    <defs></defs>
    <g id="Page-1" stroke="none" stroke-width="1" fill="none" fill-rule="evenodd">
        <g id="Desktop-Copy-14" transform="translate(-334.000000, -419.000000)">
            <g id="Group-2" transform="translate(334.000000, 419.000000)">
                <rect id="Rectangle-13-Copy" fill-opacity="0" fill="#7D7D7D" x="0" y="0" width="20" height="20"></rect>
                <path d="M16.0625,7.078125 C15.7812486,7.51562719 15.4062523,7.90624828 14.9375,8.25 L14.9375,8.53125 C14.9375,10.1718832 14.3476621,11.6601496 13.1679688,12.9960938 C11.9882754,14.3320379 10.4218848,15 8.46875,15 C7.21874375,15 6.06250531,14.6562534 5,13.96875 C5.25000125,14.0000002 5.42968695,14.015625 5.5390625,14.015625 C6.58594273,14.015625 7.52343336,13.6875033 8.3515625,13.03125 C7.86718508,13.0156249 7.42968945,12.8632827 7.0390625,12.5742188 C6.64843555,12.2851548 6.3828132,11.9140648 6.2421875,11.4609375 C6.42968844,11.4921877 6.57031203,11.5078125 6.6640625,11.5078125 C6.82031328,11.5078125 7.02343625,11.4765628 7.2734375,11.4140625 C6.75780992,11.304687 6.32422051,11.0429708 5.97265625,10.6289062 C5.62109199,10.2148417 5.4453125,9.73437773 5.4453125,9.1875 L5.4453125,9.1640625 C5.78906422,9.35156344 6.13281078,9.4453125 6.4765625,9.4453125 C5.80468414,9.00781031 5.46875,8.37500414 5.46875,7.546875 C5.46875,7.15624805 5.57031148,6.7812518 5.7734375,6.421875 C6.97656852,7.90625742 8.53124047,8.69531203 10.4375,8.7890625 C10.4062498,8.67968695 10.390625,8.50781367 10.390625,8.2734375 C10.390625,7.6328093 10.6093728,7.09375219 11.046875,6.65625 C11.4843772,6.21874781 12.0234343,6 12.6640625,6 C13.3046907,6 13.8515602,6.24218508 14.3046875,6.7265625 C14.7734398,6.64843711 15.25781,6.46093898 15.7578125,6.1640625 C15.6015617,6.71094023 15.2656276,7.13281102 14.75,7.4296875 C15.2343774,7.38281227 15.671873,7.26562594 16.0625,7.078125 Z" id="ion-social-twitter---Ionicons" fill="#FFFFFF"></path>
            </g>
        </g>
    </g>
</svg>