<svg xmlns="http://www.w3.org/2000/svg" viewBox="0 0 216.67 137.16"><defs><style>.cls-1{fill:#fff;opacity:0;}.cls-2,.cls-4,.cls-5{fill:#f7f9fc;}.cls-2,.cls-3{stroke:#2f79ff;}.cls-2,.cls-3,.cls-4,.cls-5{stroke-miterlimit:10;}.cls-2{stroke-width:3px;}.cls-3{fill:none;}.cls-4,.cls-5{stroke:#323648;}.cls-4{stroke-width:2px;}.cls-5{stroke-width:0.75px;}</style></defs><title>1-1</title><g id="Layer_2" data-name="Layer 2"><g id="Layer_1-2" data-name="Layer 1"><rect class="cls-1" width="216.67" height="137.16"/><polygon class="cls-2" points="42.41 31.43 75.43 12.37 108.46 31.43 108.46 69.57 75.43 88.63 42.41 69.57 42.41 31.43"/><polyline class="cls-3" points="75.43 88.63 75.43 50.5 42.64 31.43"/><line class="cls-3" x1="108.23" y1="31.43" x2="75.43" y2="50.5"/><polygon class="cls-4" points="97.04 72.63 110.65 64.77 124.26 72.63 124.26 88.34 110.65 96.2 97.04 88.34 97.04 72.63"/><polyline class="cls-5" points="110.65 96.2 110.65 80.49 97.14 72.63"/><line class="cls-5" x1="124.17" y1="72.63" x2="110.65" y2="80.49"/><polygon class="cls-4" points="122 86.92 135.6 79.07 149.21 86.92 149.21 102.64 135.6 110.5 122 102.64 122 86.92"/><polyline class="cls-5" points="135.6 110.5 135.6 94.78 122.09 86.92"/><line class="cls-5" x1="149.12" y1="86.93" x2="135.6" y2="94.78"/><polygon class="cls-4" points="147.04 101.22 160.65 93.36 174.26 101.22 174.26 116.94 160.65 124.79 147.04 116.94 147.04 101.22"/><polyline class="cls-5" points="160.65 124.79 160.65 109.08 147.13 101.22"/><line class="cls-5" x1="174.16" y1="101.22" x2="160.65" y2="109.08"/></g></g></svg>