<svg xmlns="http://www.w3.org/2000/svg" viewBox="0 0 216.67 137.16"><defs><style>.cls-1{fill:#fff;opacity:0;}.cls-2,.cls-4{fill:#f7f9fc;}.cls-2,.cls-3,.cls-4{stroke:#2f79ff;}.cls-2,.cls-3{stroke-miterlimit:10;}.cls-2{stroke-width:3px;}.cls-3{fill:none;}.cls-4{stroke-linejoin:round;opacity:0.28;}.cls-5{isolation:isolate;}.cls-6{fill:#f4c500;}.cls-7{fill:#f9db00;}.cls-8{fill:#ffce00;}</style></defs><title>1-2</title><g id="Layer_2" data-name="Layer 2"><g id="Layer_1-2" data-name="Layer 1"><rect class="cls-1" width="216.67" height="137.16"/><polygon class="cls-2" points="74.79 69.58 108.33 50.21 141.88 69.58 141.88 108.31 108.33 127.68 74.79 108.31 74.79 69.58"/><polyline class="cls-3" points="108.1 127.68 108.1 88.94 74.79 69.58"/><line class="cls-3" x1="141.64" y1="69.58" x2="108.33" y2="88.95"/><polygon class="cls-4" points="108.33 35.85 141.88 55.21 108.33 74.58 74.79 55.21 108.33 35.85"/><polygon class="cls-4" points="108.33 43.2 141.88 62.56 108.33 81.93 74.79 62.56 108.33 43.2"/><g class="cls-5"><path class="cls-6" d="M101.6,41.37l2.51-1.46c-1.12.65-1.81,2-1.82,4a13.69,13.69,0,0,0,6.2,10.75L106,56.1a13.69,13.69,0,0,1-6.2-10.75C99.79,43.4,100.48,42,101.6,41.37Z"/><path class="cls-6" d="M112.92,55.07l-2.51,1.46c-1.13.66-2.7.57-4.43-.43l2.51-1.46C110.22,55.64,111.79,55.73,112.92,55.07Z"/><path class="cls-7" d="M104.11,39.91c1.13-.66,2.7-.57,4.43.43L106,41.8c-1.73-1-3.3-1.09-4.43-.43Z"/><path class="cls-7" d="M114.74,51.08c0,2-.7,3.34-1.82,4l-2.51,1.46c1.12-.65,1.81-2,1.82-4a12.18,12.18,0,0,0-1.42-5.39l2.51-1.46A12.18,12.18,0,0,1,114.74,51.08Z"/><path class="cls-6" d="M99.8,38.29l2.51-1.46c1.59-.93,3.8-.8,6.23.61L106,38.9C103.6,37.49,101.4,37.36,99.8,38.29Z"/><path class="cls-7" d="M113.32,45.69l-2.51,1.46A13.08,13.08,0,0,0,106,41.8l2.51-1.46A13.08,13.08,0,0,1,113.32,45.69Z"/><path class="cls-6" d="M114.71,58.16l-2.51,1.46c1.57-.91,2.55-2.86,2.56-5.61,0-5.55-3.89-12.32-8.72-15.11l2.51-1.46c4.83,2.79,8.74,9.56,8.72,15.11C117.26,55.3,116.28,57.24,114.71,58.16Z"/><path class="cls-8" d="M106,38.9c4.83,2.79,8.74,9.56,8.72,15.11s-4,7.8-8.78,5-8.74-9.57-8.73-15.12S101.21,36.11,106,38.9Zm0,17.21c3.43,2,6.23.39,6.25-3.56A13.7,13.7,0,0,0,106,41.8c-3.43-2-6.23-.39-6.25,3.56A13.69,13.69,0,0,0,106,56.1"/><path class="cls-7" d="M106,41.8a13.7,13.7,0,0,1,6.2,10.75c0,3.95-2.82,5.54-6.25,3.56a13.69,13.69,0,0,1-6.2-10.75C99.79,41.41,102.59,39.81,106,41.8Z"/></g><g class="cls-5"><path class="cls-6" d="M101.6,14.61l2.51-1.46c-1.12.65-1.81,2-1.82,4a13.69,13.69,0,0,0,6.2,10.75L106,29.34a13.69,13.69,0,0,1-6.2-10.75C99.79,16.64,100.48,15.26,101.6,14.61Z"/><path class="cls-6" d="M112.92,28.31l-2.51,1.46c-1.13.66-2.7.57-4.43-.43l2.51-1.46C110.22,28.88,111.79,29,112.92,28.31Z"/><path class="cls-7" d="M104.11,13.15c1.13-.66,2.7-.57,4.43.43L106,15c-1.73-1-3.3-1.09-4.43-.43Z"/><path class="cls-7" d="M114.74,24.33c0,2-.7,3.34-1.82,4l-2.51,1.46c1.12-.65,1.81-2,1.82-4a12.18,12.18,0,0,0-1.42-5.39l2.51-1.46A12.18,12.18,0,0,1,114.74,24.33Z"/><path class="cls-6" d="M99.8,11.53l2.51-1.46c1.59-.93,3.8-.8,6.23.61L106,12.14C103.6,10.73,101.4,10.61,99.8,11.53Z"/><path class="cls-7" d="M113.32,18.93l-2.51,1.46A13.08,13.08,0,0,0,106,15l2.51-1.46A13.08,13.08,0,0,1,113.32,18.93Z"/><path class="cls-6" d="M114.71,31.4l-2.51,1.46c1.57-.91,2.55-2.86,2.56-5.61,0-5.55-3.89-12.32-8.72-15.11l2.51-1.46c4.83,2.79,8.74,9.56,8.72,15.11C117.26,28.54,116.28,30.48,114.71,31.4Z"/><path class="cls-8" d="M106,12.14c4.83,2.79,8.74,9.56,8.72,15.11s-4,7.8-8.78,5-8.74-9.57-8.73-15.12S101.21,9.35,106,12.14Zm0,17.21c3.43,2,6.23.39,6.25-3.56A13.7,13.7,0,0,0,106,15c-3.43-2-6.23-.39-6.25,3.56A13.69,13.69,0,0,0,106,29.34"/><path class="cls-7" d="M106,15a13.7,13.7,0,0,1,6.2,10.75c0,3.95-2.82,5.54-6.25,3.56a13.69,13.69,0,0,1-6.2-10.75C99.79,14.65,102.59,13.06,106,15Z"/></g></g></g></svg>