<svg xmlns="http://www.w3.org/2000/svg" viewBox="0 0 216.67 137.16"><defs><style>.cls-1{fill:#fff;opacity:0;}.cls-2,.cls-3,.cls-5{fill:none;}.cls-2,.cls-3{stroke:#959fab;}.cls-2,.cls-3,.cls-4,.cls-5{stroke-miterlimit:10;}.cls-3{stroke-dasharray:3.04 3.04;}.cls-4{fill:#f7f9fc;stroke-width:3px;}.cls-4,.cls-5{stroke:#2f79ff;}.cls-6{fill:#2f79ff;opacity:0.3;}</style></defs><title>1-3</title><g id="Layer_2" data-name="Layer 2"><g id="Layer_1-2" data-name="Layer 1"><rect class="cls-1" width="216.67" height="137.16"/><line class="cls-2" x1="122.84" y1="40.5" x2="121.54" y2="41.25"/><path class="cls-3" d="M118.91,42.77,66.84,72.91a3.54,3.54,0,0,0,0,6.12l82.37,47.51"/><line class="cls-2" x1="150.53" y1="127.31" x2="151.83" y2="128.05"/><polygon class="cls-4" points="46.02 22.04 68.42 9.1 90.83 22.04 90.83 47.91 68.42 60.84 46.02 47.91 46.02 22.04"/><polyline class="cls-5" points="68.42 60.84 68.42 34.97 46.17 22.04"/><line class="cls-5" x1="90.67" y1="22.04" x2="68.42" y2="34.97"/><polygon class="cls-6" points="78.24 40.91 100.65 27.89 100.65 53.76 78.24 66.78 78.24 40.91"/><polygon class="cls-6" points="73.34 37.92 95.75 24.9 95.75 50.77 73.34 63.79 73.34 37.92"/><polygon class="cls-4" points="83.76 43.95 106.16 31.01 128.57 43.95 128.57 69.82 106.16 82.75 83.76 69.82 83.76 43.95"/><polyline class="cls-5" points="106.16 82.75 106.16 56.88 83.92 43.95"/><line class="cls-5" x1="128.41" y1="43.95" x2="106.16" y2="56.88"/><polygon class="cls-6" points="116 62.85 138.4 49.82 138.4 75.69 116 88.72 116 62.85"/><polygon class="cls-6" points="111.1 59.86 133.5 46.84 133.5 72.7 111.1 85.73 111.1 59.86"/><polygon class="cls-6" points="120.92 65.83 143.33 52.81 143.33 78.68 120.92 91.7 120.92 65.83"/><polygon class="cls-4" points="125.84 68.82 148.24 55.88 170.65 68.82 170.65 94.69 148.24 107.62 125.84 94.69 125.84 68.82"/><polyline class="cls-5" points="148.24 107.62 148.24 81.75 126 68.82"/><line class="cls-5" x1="170.49" y1="68.82" x2="148.24" y2="81.75"/></g></g></svg>