<?xml version="1.0" encoding="UTF-8" standalone="no"?>
<svg width="217px" height="138px" viewBox="0 0 217 138" version="1.1" xmlns="http://www.w3.org/2000/svg" xmlns:xlink="http://www.w3.org/1999/xlink">
    <!-- Generator: Sketch 50 (54983) - http://www.bohemiancoding.com/sketch -->
    <title>1-1</title>
    <desc>Created with Sketch.</desc>
    <defs></defs>
    <g id="Page-1" stroke="none" stroke-width="1" fill="none" fill-rule="evenodd">
        <g id="1-1">
            <rect id="Rectangle-path" fill="#FFFFFF" fill-rule="nonzero" opacity="0" x="0" y="0" width="216.67" height="137.16"></rect>
            <polygon id="Shape" stroke="#2F79FF" stroke-width="3" fill="#F7F9FC" fill-rule="nonzero" points="42.41 31.43 75.43 12.37 108.46 31.43 108.46 69.57 75.43 88.63 42.41 69.57"></polygon>
            <polyline id="Shape" stroke="#2F79FF" points="75.43 88.63 75.43 50.5 42.64 31.43"></polyline>
            <path d="M108.23,31.43 L75.43,50.5" id="Shape" stroke="#2F79FF"></path>
            <polygon id="Shape" stroke="#FF453A" stroke-width="2" fill="#F7F9FC" fill-rule="nonzero" points="97.04 72.63 110.65 64.77 124.26 72.63 124.26 88.34 110.65 96.2 97.04 88.34"></polygon>
            <polyline id="Shape" stroke="#FF453A" stroke-width="0.75" points="110.65 96.2 110.65 80.49 97.14 72.63"></polyline>
            <path d="M124.17,72.63 L110.65,80.49" id="Shape" stroke="#FF453A" stroke-width="0.75" fill="#F7F9FC" fill-rule="nonzero"></path>
            <polygon id="Shape" stroke="#FF453A" stroke-width="2" fill="#F7F9FC" fill-rule="nonzero" points="122 86.92 135.6 79.07 149.21 86.92 149.21 102.64 135.6 110.5 122 102.64"></polygon>
            <polyline id="Shape" stroke="#FF453A" stroke-width="0.75" points="135.6 110.5 135.6 94.78 122.09 86.92"></polyline>
            <path d="M149.12,86.93 L135.6,94.78" id="Shape" stroke="#FF453A" stroke-width="0.75" fill="#F7F9FC" fill-rule="nonzero"></path>
            <polygon id="Shape" stroke="#FF453A" stroke-width="2" fill="#F7F9FC" fill-rule="nonzero" points="147.04 101.22 160.65 93.36 174.26 101.22 174.26 116.94 160.65 124.79 147.04 116.94"></polygon>
            <polyline id="Shape" stroke="#FF453A" stroke-width="0.75" points="160.65 124.79 160.65 109.08 147.13 101.22"></polyline>
            <path d="M174.16,101.22 L160.65,109.08" id="Shape" stroke="#FF453A" stroke-width="0.75" fill="#F7F9FC" fill-rule="nonzero"></path>
        </g>
    </g>
</svg>