<?xml version="1.0" encoding="UTF-8" standalone="no"?>
<svg width="217px" height="138px" viewBox="0 0 217 138" version="1.1" xmlns="http://www.w3.org/2000/svg" xmlns:xlink="http://www.w3.org/1999/xlink">
    <!-- Generator: Sketch 50 (54983) - http://www.bohemiancoding.com/sketch -->
    <title>1-1</title>
    <desc>Created with Sketch.</desc>
    <defs></defs>
    <g id="Page-1" stroke="none" stroke-width="1" fill="none" fill-rule="evenodd">
        <g id="1-2">
            <rect id="Rectangle-path" fill="#FFFFFF" fill-rule="nonzero" opacity="0" x="0" y="0" width="216.67" height="137.16"></rect>
            <polygon id="Shape" stroke="#FF453A" stroke-width="3" fill="#F7F9FC" fill-rule="nonzero" points="74.79 69.58 108.33 50.21 141.88 69.58 141.88 108.31 108.33 127.68 74.79 108.31"></polygon>
            <polyline id="Shape" stroke="#FF453A" points="108.1 127.68 108.1 88.94 74.79 69.58"></polyline>
            <path d="M141.64,69.58 L108.33,88.95" id="Shape" stroke="#FF453A"></path>
            <polygon id="Shape" stroke="#2F79FF" fill="#F7F9FC" fill-rule="nonzero" opacity="0.28" stroke-linejoin="round" points="108.33 35.85 141.88 55.21 108.33 74.58 74.79 55.21"></polygon>
            <polygon id="Shape" stroke="#2F79FF" fill="#F7F9FC" fill-rule="nonzero" opacity="0.28" stroke-linejoin="round" points="108.33 43.2 141.88 62.56 108.33 81.93 74.79 62.56"></polygon>
            <g id="Group" transform="translate(97.000000, 36.000000)" fill-rule="nonzero">
                <path d="M4.6,5.37 L7.11,3.91 C5.99,4.56 5.3,5.91 5.29,7.91 C5.5206056,12.2780516 7.82462834,16.2729297 11.49,18.66 L9,20.1 C5.33462834,17.7129297 3.0306056,13.7180516 2.8,9.35 C2.79,7.4 3.48,6 4.6,5.37 Z" id="Shape" fill="#F4C500"></path>
                <path d="M15.92,19.07 L13.41,20.53 C12.28,21.19 10.71,21.1 8.98,20.1 L11.49,18.64 C13.22,19.64 14.79,19.73 15.92,19.07 Z" id="Shape" fill="#F4C500"></path>
                <path d="M7.11,3.91 C8.24,3.25 9.81,3.34 11.54,4.34 L9,5.8 C7.27,4.8 5.7,4.71 4.57,5.37 L7.11,3.91 Z" id="Shape" fill="#F9DB00"></path>
                <path d="M17.74,15.08 C17.74,17.08 17.04,18.42 15.92,19.08 L13.41,20.54 C14.53,19.89 15.22,18.54 15.23,16.54 C15.1796591,14.6577251 14.6935995,12.8127523 13.81,11.15 L16.32,9.69 C17.2035995,11.3527523 17.6896591,13.1977251 17.74,15.08 Z" id="Shape" fill="#F9DB00"></path>
                <path d="M2.8,2.29 L5.31,0.83 C6.9,-0.1 9.11,0.03 11.54,1.44 L9,2.9 C6.6,1.49 4.4,1.36 2.8,2.29 Z" id="Shape" fill="#F4C500"></path>
                <path d="M16.32,9.69 L13.81,11.15 C12.7382679,8.95211873 11.0718954,7.09866904 9,5.8 L11.51,4.34 C13.5818954,5.63866904 15.2482679,7.49211873 16.32,9.69 Z" id="Shape" fill="#F9DB00"></path>
                <path d="M17.71,22.16 L15.2,23.62 C16.77,22.71 17.75,20.76 17.76,18.01 C17.76,12.46 13.87,5.69 9.04,2.9 L11.55,1.44 C16.38,4.23 20.29,11 20.27,16.55 C20.26,19.3 19.28,21.24 17.71,22.16 Z" id="Shape" fill="#F4C500"></path>
                <path d="M9,2.9 C13.83,5.69 17.74,12.46 17.72,18.01 C17.7,23.56 13.72,25.81 8.94,23.01 C4.16,20.21 0.2,13.44 0.21,7.89 C0.22,2.34 4.21,0.11 9,2.9 Z M9,20.11 C12.43,22.11 15.23,20.5 15.25,16.55 C15.0065122,12.1731129 12.6832167,8.17704468 9,5.8 C5.57,3.8 2.77,5.41 2.75,9.36 C2.9950112,13.7337686 5.31832545,17.7261518 9,20.1 L9,20.11 Z" id="Shape" fill="#FFCE00"></path>
                <path d="M9,5.8 C12.6641598,8.18821804 14.967794,12.1824225 15.2,16.55 C15.2,20.5 12.38,22.09 8.95,20.11 C5.28462834,17.7229297 2.9806056,13.7280516 2.75,9.36 C2.79,5.41 5.59,3.81 9,5.8 Z" id="Shape" fill="#F9DB00"></path>
            </g>
            <g id="Group" transform="translate(97.000000, 9.000000)" fill-rule="nonzero">
                <path d="M4.6,5.61 L7.11,4.15 C5.99,4.8 5.3,6.15 5.29,8.15 C5.5206056,12.5180516 7.82462834,16.5129297 11.49,18.9 L9,20.34 C5.33462834,17.9529297 3.0306056,13.9580516 2.8,9.59 C2.79,7.64 3.48,6.26 4.6,5.61 Z" id="Shape" fill="#F4C500"></path>
                <path d="M15.92,19.31 L13.41,20.77 C12.28,21.43 10.71,21.34 8.98,20.34 L11.49,18.88 C13.22,19.88 14.79,20 15.92,19.31 Z" id="Shape" fill="#F4C500"></path>
                <path d="M7.11,4.15 C8.24,3.49 9.81,3.58 11.54,4.58 L9,6 C7.27,5 5.7,4.91 4.57,5.57 L7.11,4.15 Z" id="Shape" fill="#F9DB00"></path>
                <path d="M17.74,15.33 C17.74,17.33 17.04,18.67 15.92,19.33 L13.41,20.79 C14.53,20.14 15.22,18.79 15.23,16.79 C15.1796591,14.9077251 14.6935995,13.0627523 13.81,11.4 L16.32,9.94 C17.2035995,11.6027523 17.6896591,13.4477251 17.74,15.33 Z" id="Shape" fill="#F9DB00"></path>
                <path d="M2.8,2.53 L5.31,1.07 C6.9,0.14 9.11,0.27 11.54,1.68 L9,3.14 C6.6,1.73 4.4,1.61 2.8,2.53 Z" id="Shape" fill="#F4C500"></path>
                <path d="M16.32,9.93 L13.81,11.39 C12.7444498,9.17741534 11.0775329,7.30949804 9,6 L11.51,4.54 C13.5875329,5.84949804 15.2544498,7.71741534 16.32,9.93 Z" id="Shape" fill="#F9DB00"></path>
                <path d="M17.71,22.4 L15.2,23.86 C16.77,22.95 17.75,21 17.76,18.25 C17.76,12.7 13.87,5.93 9.04,3.14 L11.55,1.68 C16.38,4.47 20.29,11.24 20.27,16.79 C20.26,19.54 19.28,21.48 17.71,22.4 Z" id="Shape" fill="#F4C500"></path>
                <path d="M9,3.14 C13.83,5.93 17.74,12.7 17.72,18.25 C17.7,23.8 13.72,26.05 8.94,23.25 C4.16,20.45 0.2,13.68 0.21,8.13 C0.22,2.58 4.21,0.35 9,3.14 Z M9,20.35 C12.43,22.35 15.23,20.74 15.25,16.79 C15.0190552,12.39872 12.6942581,8.38519028 9,6 C5.57,4 2.77,5.61 2.75,9.56 C2.98246977,13.9481636 5.30728643,17.9580074 9,20.34 L9,20.35 Z" id="Shape" fill="#FFCE00"></path>
                <path d="M9,6 C12.6641598,8.38821804 14.967794,12.3824225 15.2,16.75 C15.2,20.7 12.38,22.29 8.95,20.31 C5.28462834,17.9229297 2.9806056,13.9280516 2.75,9.56 C2.79,5.65 5.59,4.06 9,6 Z" id="Shape" fill="#F9DB00"></path>
            </g>
        </g>
    </g>
</svg>