<?xml version="1.0" encoding="UTF-8" standalone="no"?>
<svg width="217px" height="138px" viewBox="0 0 217 138" version="1.1" xmlns="http://www.w3.org/2000/svg" xmlns:xlink="http://www.w3.org/1999/xlink">
    <!-- Generator: Sketch 50 (54983) - http://www.bohemiancoding.com/sketch -->
    <title>1-1</title>
    <desc>Created with Sketch.</desc>
    <defs></defs>
    <g id="Page-1" stroke="none" stroke-width="1" fill="none" fill-rule="evenodd">
        <g id="1-3">
            <rect id="Rectangle-path" fill="#FFFFFF" fill-rule="nonzero" opacity="0" x="0" y="0" width="216.67" height="137.16"></rect>
            <path d="M122.84,40.5 L121.54,41.25" id="Shape" stroke="#959FAB"></path>
            <path d="M118.91,42.77 L66.84,72.91 C65.7502957,73.5438402 65.0798876,74.7093617 65.0798876,75.97 C65.0798876,77.2306383 65.7502957,78.3961598 66.84,79.03 L149.21,126.54" id="Shape" stroke="#959FAB" stroke-dasharray="3.04"></path>
            <path d="M150.53,127.31 L151.83,128.05" id="Shape" stroke="#959FAB"></path>
            <polygon id="Shape" stroke="#2F79FF" stroke-width="3" fill="#F7F9FC" fill-rule="nonzero" points="46.02 22.04 68.42 9.1 90.83 22.04 90.83 47.91 68.42 60.84 46.02 47.91"></polygon>
            <polyline id="Shape" stroke="#2F79FF" points="68.42 60.84 68.42 34.97 46.17 22.04"></polyline>
            <path d="M90.67,22.04 L68.42,34.97" id="Shape" stroke="#2F79FF"></path>
            <polygon id="Shape" fill="#2F79FF" fill-rule="nonzero" opacity="0.3" points="78.24 40.91 100.65 27.89 100.65 53.76 78.24 66.78"></polygon>
            <polygon id="Shape" fill="#2F79FF" fill-rule="nonzero" opacity="0.3" points="73.34 37.92 95.75 24.9 95.75 50.77 73.34 63.79"></polygon>
            <polygon id="Shape" stroke="#2F79FF" stroke-width="3" fill="#F7F9FC" fill-rule="nonzero" points="83.76 43.95 106.16 31.01 128.57 43.95 128.57 69.82 106.16 82.75 83.76 69.82"></polygon>
            <polyline id="Shape" stroke="#2F79FF" points="106.16 82.75 106.16 56.88 83.92 43.95"></polyline>
            <path d="M128.41,43.95 L106.16,56.88" id="Shape" stroke="#2F79FF"></path>
            <polygon id="Shape" fill="#FF453A" fill-rule="nonzero" opacity="0.3" points="116 62.85 138.4 49.82 138.4 75.69 116 88.72"></polygon>
            <polygon id="Shape" fill="#FF453A" fill-rule="nonzero" opacity="0.3" points="111.1 59.86 133.5 46.84 133.5 72.7 111.1 85.73"></polygon>
            <polygon id="Shape" fill="#FF453A" fill-rule="nonzero" opacity="0.3" points="120.92 65.83 143.33 52.81 143.33 78.68 120.92 91.7"></polygon>
            <polygon id="Shape" stroke="#FF453A" stroke-width="3" fill="#F7F9FC" fill-rule="nonzero" points="125.84 68.82 148.24 55.88 170.65 68.82 170.65 94.69 148.24 107.62 125.84 94.69"></polygon>
            <polyline id="Shape" stroke="#FF453A" points="148.24 107.62 148.24 81.75 126 68.82"></polyline>
            <path d="M170.49,68.82 L148.24,81.75" id="Shape" stroke="#FF453A"></path>
        </g>
    </g>
</svg>