<svg xmlns="http://www.w3.org/2000/svg" xmlns:xlink="http://www.w3.org/1999/xlink" viewBox="0 0 370.75 330.43"><defs><style>.cls-1,.cls-11,.cls-17,.cls-18,.cls-19,.cls-20,.cls-22,.cls-23,.cls-26,.cls-4,.cls-9{fill:none;}.cls-14,.cls-2{fill:#2f79ff;}.cls-3{clip-path:url(#clip-path);}.cls-12,.cls-20,.cls-24,.cls-4{stroke:#959fab;}.cls-10,.cls-11,.cls-12,.cls-13,.cls-17,.cls-18,.cls-19,.cls-20,.cls-21,.cls-22,.cls-23,.cls-24,.cls-26,.cls-4,.cls-9{stroke-miterlimit:10;}.cls-5{clip-path:url(#clip-path-2);}.cls-6{clip-path:url(#clip-path-3);}.cls-7{clip-path:url(#clip-path-4);}.cls-8{fill:#323648;}.cls-18,.cls-19,.cls-26,.cls-9{stroke:#fff;}.cls-13,.cls-21,.cls-24,.cls-9{stroke-width:2px;}.cls-10,.cls-12,.cls-13,.cls-21,.cls-24{fill:#fff;}.cls-10,.cls-11,.cls-13,.cls-17,.cls-23{stroke:#2f79ff;}.cls-10,.cls-12{stroke-width:3px;}.cls-14{opacity:0.3;}.cls-15{opacity:0.5;fill:url(#line);}.cls-16{fill:url(#_10_dpi_30_);}.cls-17{stroke-dasharray:3.03 3.03;}.cls-19{stroke-dasharray:2.97 2.97;}.cls-20{stroke-dasharray:3.01 3.01;}.cls-21,.cls-22{stroke:#323648;}.cls-23,.cls-26{stroke-width:0.8px;}.cls-25{fill:#007aff;}.cls-27,.cls-28{fill:#959fab;}.cls-27{opacity:0.2;}</style><clipPath id="clip-path"><rect class="cls-1" x="88.67" y="11.35" width="100" height="100"/></clipPath><clipPath id="clip-path-2"><rect class="cls-1" x="-11.33" y="11.35" width="100" height="100"/></clipPath><clipPath id="clip-path-3"><rect class="cls-1" x="88.67" y="-88.65" width="100" height="100"/></clipPath><clipPath id="clip-path-4"><rect class="cls-1" x="-11.33" y="-88.65" width="100" height="100"/></clipPath><pattern id="line" data-name="line" width="100" height="100" patternTransform="translate(121 59)" patternUnits="userSpaceOnUse" viewBox="0 0 100 100"><rect class="cls-1" width="100" height="100"/><g class="cls-3"><line class="cls-4" x1="255.91" y1="-158.43" x2="47.48" y2="59.08"/><line class="cls-4" x1="255.91" y1="-162.79" x2="47.48" y2="54.72"/><line class="cls-4" x1="255.91" y1="-154.08" x2="47.48" y2="63.43"/><line class="cls-4" x1="255.91" y1="-145.37" x2="47.48" y2="72.14"/><line class="cls-4" x1="255.91" y1="-149.72" x2="47.48" y2="67.79"/><line class="cls-4" x1="255.91" y1="-141.01" x2="47.48" y2="76.5"/><line class="cls-4" x1="255.91" y1="-132.3" x2="47.48" y2="85.21"/><line class="cls-4" x1="255.91" y1="-136.66" x2="47.48" y2="80.85"/><line class="cls-4" x1="255.91" y1="-127.95" x2="47.48" y2="89.56"/><line class="cls-4" x1="255.91" y1="-119.24" x2="47.48" y2="98.27"/><line class="cls-4" x1="255.91" y1="-123.59" x2="47.48" y2="93.91"/><line class="cls-4" x1="255.91" y1="-114.88" x2="47.48" y2="102.62"/><line class="cls-4" x1="255.91" y1="-106.17" x2="47.48" y2="111.33"/><line class="cls-4" x1="255.91" y1="-110.53" x2="47.48" y2="106.98"/><line class="cls-4" x1="255.91" y1="-101.82" x2="47.48" y2="115.69"/><line class="cls-4" x1="255.91" y1="-93.11" x2="47.48" y2="124.4"/><line class="cls-4" x1="255.91" y1="-97.46" x2="47.48" y2="120.04"/><line class="cls-4" x1="255.91" y1="-88.76" x2="47.48" y2="128.75"/><line class="cls-4" x1="255.91" y1="-80.05" x2="47.48" y2="137.46"/><line class="cls-4" x1="255.91" y1="-84.4" x2="47.48" y2="133.11"/><line class="cls-4" x1="255.91" y1="-75.69" x2="47.48" y2="141.82"/><line class="cls-4" x1="255.91" y1="-66.98" x2="47.48" y2="150.53"/><line class="cls-4" x1="255.91" y1="-71.34" x2="47.48" y2="146.17"/><line class="cls-4" x1="255.91" y1="-62.63" x2="47.48" y2="154.88"/><line class="cls-4" x1="255.91" y1="-53.92" x2="47.48" y2="163.59"/><line class="cls-4" x1="255.91" y1="-58.27" x2="47.48" y2="159.24"/><line class="cls-4" x1="255.91" y1="-49.56" x2="47.48" y2="167.94"/><line class="cls-4" x1="255.91" y1="-40.85" x2="47.48" y2="176.65"/><line class="cls-4" x1="255.91" y1="-45.21" x2="47.48" y2="172.3"/><line class="cls-4" x1="255.91" y1="-36.5" x2="47.48" y2="181.01"/><line class="cls-4" x1="255.91" y1="-27.79" x2="47.48" y2="189.72"/><line class="cls-4" x1="255.91" y1="-32.14" x2="47.48" y2="185.36"/><line class="cls-4" x1="255.91" y1="-23.44" x2="47.48" y2="194.07"/><line class="cls-4" x1="255.91" y1="-14.73" x2="47.48" y2="202.78"/><line class="cls-4" x1="255.91" y1="-19.08" x2="47.48" y2="198.43"/><line class="cls-4" x1="255.91" y1="-10.37" x2="47.48" y2="207.14"/><line class="cls-4" x1="255.91" y1="-1.66" x2="47.48" y2="215.85"/><line class="cls-4" x1="255.91" y1="-6.02" x2="47.48" y2="211.49"/><line class="cls-4" x1="255.91" y1="2.69" x2="47.48" y2="220.2"/><line class="cls-4" x1="255.91" y1="11.4" x2="47.48" y2="228.91"/><line class="cls-4" x1="255.91" y1="7.05" x2="47.48" y2="224.56"/><line class="cls-4" x1="255.91" y1="15.76" x2="47.48" y2="233.27"/><line class="cls-4" x1="255.91" y1="24.47" x2="47.48" y2="241.97"/><line class="cls-4" x1="255.91" y1="20.11" x2="47.48" y2="237.62"/><line class="cls-4" x1="255.91" y1="28.82" x2="47.48" y2="246.33"/><line class="cls-4" x1="255.91" y1="37.53" x2="47.48" y2="255.04"/><line class="cls-4" x1="255.91" y1="33.18" x2="47.48" y2="250.68"/><line class="cls-4" x1="255.91" y1="41.89" x2="47.48" y2="259.39"/></g><g class="cls-5"><line class="cls-4" x1="155.91" y1="-158.43" x2="-52.52" y2="59.08"/><line class="cls-4" x1="155.91" y1="-162.79" x2="-52.52" y2="54.72"/><line class="cls-4" x1="155.91" y1="-154.08" x2="-52.52" y2="63.43"/><line class="cls-4" x1="155.91" y1="-145.37" x2="-52.52" y2="72.14"/><line class="cls-4" x1="155.91" y1="-149.72" x2="-52.52" y2="67.79"/><line class="cls-4" x1="155.91" y1="-141.01" x2="-52.52" y2="76.5"/><line class="cls-4" x1="155.91" y1="-132.3" x2="-52.52" y2="85.21"/><line class="cls-4" x1="155.91" y1="-136.66" x2="-52.52" y2="80.85"/><line class="cls-4" x1="155.91" y1="-127.95" x2="-52.52" y2="89.56"/><line class="cls-4" x1="155.91" y1="-119.24" x2="-52.52" y2="98.27"/><line class="cls-4" x1="155.91" y1="-123.59" x2="-52.52" y2="93.91"/><line class="cls-4" x1="155.91" y1="-114.88" x2="-52.52" y2="102.62"/><line class="cls-4" x1="155.91" y1="-106.17" x2="-52.52" y2="111.33"/><line class="cls-4" x1="155.91" y1="-110.53" x2="-52.52" y2="106.98"/><line class="cls-4" x1="155.91" y1="-101.82" x2="-52.52" y2="115.69"/><line class="cls-4" x1="155.91" y1="-93.11" x2="-52.52" y2="124.4"/><line class="cls-4" x1="155.91" y1="-97.46" x2="-52.52" y2="120.04"/><line class="cls-4" x1="155.91" y1="-88.76" x2="-52.52" y2="128.75"/><line class="cls-4" x1="155.91" y1="-80.05" x2="-52.52" y2="137.46"/><line class="cls-4" x1="155.91" y1="-84.4" x2="-52.52" y2="133.11"/><line class="cls-4" x1="155.91" y1="-75.69" x2="-52.52" y2="141.82"/><line class="cls-4" x1="155.91" y1="-66.98" x2="-52.52" y2="150.53"/><line class="cls-4" x1="155.91" y1="-71.34" x2="-52.52" y2="146.17"/><line class="cls-4" x1="155.91" y1="-62.63" x2="-52.52" y2="154.88"/><line class="cls-4" x1="155.91" y1="-53.92" x2="-52.52" y2="163.59"/><line class="cls-4" x1="155.91" y1="-58.27" x2="-52.52" y2="159.24"/><line class="cls-4" x1="155.91" y1="-49.56" x2="-52.52" y2="167.94"/><line class="cls-4" x1="155.91" y1="-40.85" x2="-52.52" y2="176.65"/><line class="cls-4" x1="155.91" y1="-45.21" x2="-52.52" y2="172.3"/><line class="cls-4" x1="155.91" y1="-36.5" x2="-52.52" y2="181.01"/><line class="cls-4" x1="155.91" y1="-27.79" x2="-52.52" y2="189.72"/><line class="cls-4" x1="155.91" y1="-32.14" x2="-52.52" y2="185.36"/><line class="cls-4" x1="155.91" y1="-23.44" x2="-52.52" y2="194.07"/><line class="cls-4" x1="155.91" y1="-14.73" x2="-52.52" y2="202.78"/><line class="cls-4" x1="155.91" y1="-19.08" x2="-52.52" y2="198.43"/><line class="cls-4" x1="155.91" y1="-10.37" x2="-52.52" y2="207.14"/><line class="cls-4" x1="155.91" y1="-1.66" x2="-52.52" y2="215.85"/><line class="cls-4" x1="155.91" y1="-6.02" x2="-52.52" y2="211.49"/><line class="cls-4" x1="155.91" y1="2.69" x2="-52.52" y2="220.2"/><line class="cls-4" x1="155.91" y1="11.4" x2="-52.52" y2="228.91"/><line class="cls-4" x1="155.91" y1="7.05" x2="-52.52" y2="224.56"/><line class="cls-4" x1="155.91" y1="15.76" x2="-52.52" y2="233.27"/><line class="cls-4" x1="155.91" y1="24.47" x2="-52.52" y2="241.97"/><line class="cls-4" x1="155.91" y1="20.11" x2="-52.52" y2="237.62"/><line class="cls-4" x1="155.91" y1="28.82" x2="-52.52" y2="246.33"/><line class="cls-4" x1="155.91" y1="37.53" x2="-52.52" y2="255.04"/><line class="cls-4" x1="155.91" y1="33.18" x2="-52.52" y2="250.68"/><line class="cls-4" x1="155.91" y1="41.89" x2="-52.52" y2="259.39"/></g><g class="cls-6"><line class="cls-4" x1="255.91" y1="-214.88" x2="47.48" y2="2.62"/><line class="cls-4" x1="255.91" y1="-206.17" x2="47.48" y2="11.33"/><line class="cls-4" x1="255.91" y1="-210.53" x2="47.48" y2="6.98"/><line class="cls-4" x1="255.91" y1="-201.82" x2="47.48" y2="15.69"/><line class="cls-4" x1="255.91" y1="-193.11" x2="47.48" y2="24.4"/><line class="cls-4" x1="255.91" y1="-197.46" x2="47.48" y2="20.04"/><line class="cls-4" x1="255.91" y1="-188.76" x2="47.48" y2="28.75"/><line class="cls-4" x1="255.91" y1="-180.05" x2="47.48" y2="37.46"/><line class="cls-4" x1="255.91" y1="-184.4" x2="47.48" y2="33.11"/><line class="cls-4" x1="255.91" y1="-175.69" x2="47.48" y2="41.82"/><line class="cls-4" x1="255.91" y1="-166.98" x2="47.48" y2="50.53"/><line class="cls-4" x1="255.91" y1="-171.34" x2="47.48" y2="46.17"/><line class="cls-4" x1="255.91" y1="-162.63" x2="47.48" y2="54.88"/><line class="cls-4" x1="255.91" y1="-153.92" x2="47.48" y2="63.59"/><line class="cls-4" x1="255.91" y1="-158.27" x2="47.48" y2="59.24"/><line class="cls-4" x1="255.91" y1="-149.56" x2="47.48" y2="67.94"/><line class="cls-4" x1="255.91" y1="-140.85" x2="47.48" y2="76.65"/><line class="cls-4" x1="255.91" y1="-145.21" x2="47.48" y2="72.3"/><line class="cls-4" x1="255.91" y1="-136.5" x2="47.48" y2="81.01"/><line class="cls-4" x1="255.91" y1="-127.79" x2="47.48" y2="89.72"/><line class="cls-4" x1="255.91" y1="-132.14" x2="47.48" y2="85.36"/><line class="cls-4" x1="255.91" y1="-123.44" x2="47.48" y2="94.07"/><line class="cls-4" x1="255.91" y1="-114.73" x2="47.48" y2="102.78"/><line class="cls-4" x1="255.91" y1="-119.08" x2="47.48" y2="98.43"/><line class="cls-4" x1="255.91" y1="-110.37" x2="47.48" y2="107.14"/><line class="cls-4" x1="255.91" y1="-101.66" x2="47.48" y2="115.85"/><line class="cls-4" x1="255.91" y1="-106.02" x2="47.48" y2="111.49"/><line class="cls-4" x1="255.91" y1="-97.31" x2="47.48" y2="120.2"/><line class="cls-4" x1="255.91" y1="-88.6" x2="47.48" y2="128.91"/><line class="cls-4" x1="255.91" y1="-92.95" x2="47.48" y2="124.56"/><line class="cls-4" x1="255.91" y1="-84.24" x2="47.48" y2="133.27"/><line class="cls-4" x1="255.91" y1="-75.53" x2="47.48" y2="141.97"/><line class="cls-4" x1="255.91" y1="-79.89" x2="47.48" y2="137.62"/><line class="cls-4" x1="255.91" y1="-71.18" x2="47.48" y2="146.33"/><line class="cls-4" x1="255.91" y1="-62.47" x2="47.48" y2="155.04"/><line class="cls-4" x1="255.91" y1="-66.82" x2="47.48" y2="150.68"/><line class="cls-4" x1="255.91" y1="-58.11" x2="47.48" y2="159.39"/></g><g class="cls-7"><line class="cls-4" x1="155.91" y1="-214.88" x2="-52.52" y2="2.62"/><line class="cls-4" x1="155.91" y1="-206.17" x2="-52.52" y2="11.33"/><line class="cls-4" x1="155.91" y1="-210.53" x2="-52.52" y2="6.98"/><line class="cls-4" x1="155.91" y1="-201.82" x2="-52.52" y2="15.69"/><line class="cls-4" x1="155.91" y1="-193.11" x2="-52.52" y2="24.4"/><line class="cls-4" x1="155.91" y1="-197.46" x2="-52.52" y2="20.04"/><line class="cls-4" x1="155.91" y1="-188.76" x2="-52.52" y2="28.75"/><line class="cls-4" x1="155.91" y1="-180.05" x2="-52.52" y2="37.46"/><line class="cls-4" x1="155.91" y1="-184.4" x2="-52.52" y2="33.11"/><line class="cls-4" x1="155.91" y1="-175.69" x2="-52.52" y2="41.82"/><line class="cls-4" x1="155.91" y1="-166.98" x2="-52.52" y2="50.53"/><line class="cls-4" x1="155.91" y1="-171.34" x2="-52.52" y2="46.17"/><line class="cls-4" x1="155.91" y1="-162.63" x2="-52.52" y2="54.88"/><line class="cls-4" x1="155.91" y1="-153.92" x2="-52.52" y2="63.59"/><line class="cls-4" x1="155.91" y1="-158.27" x2="-52.52" y2="59.24"/><line class="cls-4" x1="155.91" y1="-149.56" x2="-52.52" y2="67.94"/><line class="cls-4" x1="155.91" y1="-140.85" x2="-52.52" y2="76.65"/><line class="cls-4" x1="155.91" y1="-145.21" x2="-52.52" y2="72.3"/><line class="cls-4" x1="155.91" y1="-136.5" x2="-52.52" y2="81.01"/><line class="cls-4" x1="155.91" y1="-127.79" x2="-52.52" y2="89.72"/><line class="cls-4" x1="155.91" y1="-132.14" x2="-52.52" y2="85.36"/><line class="cls-4" x1="155.91" y1="-123.44" x2="-52.52" y2="94.07"/><line class="cls-4" x1="155.91" y1="-114.73" x2="-52.52" y2="102.78"/><line class="cls-4" x1="155.91" y1="-119.08" x2="-52.52" y2="98.43"/><line class="cls-4" x1="155.91" y1="-110.37" x2="-52.52" y2="107.14"/><line class="cls-4" x1="155.91" y1="-101.66" x2="-52.52" y2="115.85"/><line class="cls-4" x1="155.91" y1="-106.02" x2="-52.52" y2="111.49"/><line class="cls-4" x1="155.91" y1="-97.31" x2="-52.52" y2="120.2"/><line class="cls-4" x1="155.91" y1="-88.6" x2="-52.52" y2="128.91"/><line class="cls-4" x1="155.91" y1="-92.95" x2="-52.52" y2="124.56"/><line class="cls-4" x1="155.91" y1="-84.24" x2="-52.52" y2="133.27"/><line class="cls-4" x1="155.91" y1="-75.53" x2="-52.52" y2="141.97"/><line class="cls-4" x1="155.91" y1="-79.89" x2="-52.52" y2="137.62"/><line class="cls-4" x1="155.91" y1="-71.18" x2="-52.52" y2="146.33"/><line class="cls-4" x1="155.91" y1="-62.47" x2="-52.52" y2="155.04"/><line class="cls-4" x1="155.91" y1="-66.82" x2="-52.52" y2="150.68"/><line class="cls-4" x1="155.91" y1="-58.11" x2="-52.52" y2="159.39"/></g></pattern><pattern id="_10_dpi_30_" data-name="10 dpi 30%" width="28.8" height="28.8" patternTransform="translate(-17.3 43.29) scale(0.2)" patternUnits="userSpaceOnUse" viewBox="0 0 28.8 28.8"><rect class="cls-1" width="28.8" height="28.8"/><circle class="cls-2" cx="28.8" cy="28.8" r="2.16"/><circle class="cls-2" cx="14.4" cy="28.8" r="2.16"/><circle class="cls-2" cx="28.8" cy="14.4" r="2.16"/><circle class="cls-2" cx="14.4" cy="14.4" r="2.16"/><circle class="cls-2" cx="7.2" cy="21.6" r="2.16"/><circle class="cls-2" cx="21.6" cy="21.6" r="2.16"/><circle class="cls-2" cx="7.2" cy="7.2" r="2.16"/><circle class="cls-2" cx="21.6" cy="7.2" r="2.16"/><circle class="cls-2" cy="28.8" r="2.16"/><circle class="cls-2" cy="14.4" r="2.16"/><circle class="cls-2" cx="28.8" r="2.16"/><circle class="cls-2" cx="14.4" r="2.16"/><circle class="cls-2" r="2.16"/></pattern></defs><title>img_1</title><g id="Layer_2" data-name="Layer 2"><g id="Layer_1-2" data-name="Layer 1"><polygon class="cls-8" points="78.95 25 122.25 0 165.55 25 165.55 75 122.25 100 78.95 75 78.95 25"/><polyline class="cls-9" points="79.25 25 122.25 50 122.25 100"/><line class="cls-9" x1="165.25" y1="25" x2="122.25" y2="50"/><polygon class="cls-10" points="139.95 66 183.25 41 226.55 66 226.55 116 183.25 141 139.95 116 139.95 66"/><polyline class="cls-11" points="183.25 141 183.25 91 140.25 66"/><line class="cls-11" x1="226.25" y1="66" x2="183.25" y2="91"/><polygon class="cls-12" points="201.95 107 245.25 82 288.55 107 288.55 157 245.25 182 201.95 157 201.95 107"/><polyline class="cls-4" points="202.25 107 245.25 132 245.25 182"/><line class="cls-4" x1="288.25" y1="107" x2="245.25" y2="132"/><polygon class="cls-10" points="262.95 148 306.25 123 349.55 148 349.55 198 306.25 223 262.95 198 262.95 148"/><polyline class="cls-11" points="306.25 223 306.25 173 263.25 148"/><line class="cls-11" x1="349.25" y1="148" x2="306.25" y2="173"/><polygon class="cls-13" points="31.25 49.5 74.25 74.5 74.25 125 31.25 100 31.25 49.5"/><polygon class="cls-14" points="327.75 187.5 370.75 162.5 370.75 213 327.75 238 327.75 187.5"/><polygon class="cls-13" points="31.25 99.5 74.25 124.5 74.25 175 31.25 150 31.25 99.5"/><polygon class="cls-14" points="13.75 59.5 56.75 84.5 56.75 135 13.75 110 13.75 59.5"/><polygon class="cls-15" points="52.75 137.5 95.75 162.5 95.75 213 52.75 188 52.75 137.5"/><polygon class="cls-16" points="74.75 124.5 117.75 149.5 117.75 200 74.75 175 74.75 124.5"/><line class="cls-11" x1="78.95" y1="73.83" x2="77.65" y2="74.57"/><line class="cls-17" x1="75.02" y1="76.08" x2="2.86" y2="117.5"/><line class="cls-11" x1="1.55" y1="118.25" x2="0.25" y2="119"/><line class="cls-18" x1="99.55" y1="62" x2="98.25" y2="62.75"/><line class="cls-19" x1="95.68" y1="64.22" x2="81.53" y2="72.34"/><line class="cls-18" x1="80.25" y1="73.08" x2="78.95" y2="73.83"/><line class="cls-4" x1="262.84" y1="171.84" x2="261.54" y2="172.59"/><path class="cls-20" d="M258.93,174.1l-97.25,56.29a6.39,6.39,0,0,0,0,11.06l150.91,87"/><line class="cls-4" x1="313.91" y1="329.25" x2="315.21" y2="330"/><polygon class="cls-21" points="138.52 192.34 157.57 181.34 176.62 192.34 176.62 214.34 157.57 225.34 138.52 214.34 138.52 192.34"/><polyline class="cls-22" points="138.65 192.34 157.57 203.34 157.57 225.34"/><line class="cls-22" x1="176.49" y1="192.34" x2="157.57" y2="203.34"/><polygon class="cls-13" points="106.72 210.73 125.77 199.73 144.83 210.73 144.83 232.73 125.77 243.73 106.72 232.73 106.72 210.73"/><polyline class="cls-23" points="106.85 210.73 125.77 221.73 125.77 243.73"/><line class="cls-23" x1="144.69" y1="210.73" x2="125.77" y2="221.73"/><polygon class="cls-24" points="170.52 209.34 189.57 198.34 208.62 209.34 208.62 231.34 189.57 242.34 170.52 231.34 170.52 209.34"/><polyline class="cls-4" points="170.65 209.34 189.57 220.34 189.57 242.34"/><line class="cls-4" x1="208.49" y1="209.34" x2="189.57" y2="220.34"/><polygon class="cls-25" points="202.52 226.34 221.57 215.34 240.62 226.34 240.62 248.34 221.57 259.34 202.52 248.34 202.52 226.34"/><polyline class="cls-26" points="202.65 226.34 221.57 237.34 221.57 259.34"/><line class="cls-26" x1="240.49" y1="226.34" x2="221.57" y2="237.34"/><polygon class="cls-14" points="262.95 54.66 329.26 93.52 329.26 112.09 262.95 73.23 262.95 54.66"/><path class="cls-27" d="M256.9,272.58c1.7,2.23.16,3.77-2.48,3.77a10.32,10.32,0,0,1-6.14-2.3c-1.74-1.49-2.21-3.39-.48-4.27C250.17,268.59,254.84,269.88,256.9,272.58Z"/><circle class="cls-2" cx="255.39" cy="272.45" r="3.9"/><path class="cls-27" d="M266.87,266.8c1.7,2.23.16,3.77-2.48,3.77a10.32,10.32,0,0,1-6.14-2.3c-1.74-1.49-2.21-3.39-.48-4.27C260.14,262.81,264.81,264.1,266.87,266.8Z"/><circle class="cls-28" cx="265.36" cy="266.67" r="3.9"/><path class="cls-27" d="M276.79,261.12c1.7,2.23.16,3.77-2.48,3.77a10.32,10.32,0,0,1-6.14-2.3c-1.74-1.49-2.21-3.39-.48-4.27C270.05,257.13,274.73,258.42,276.79,261.12Z"/><circle class="cls-8" cx="275.27" cy="260.99" r="3.9"/></g></g></svg>